<!-- Generated by IcoMoon.io -->
<svg version="1.1" xmlns="http://www.w3.org/2000/svg" width="24" height="24" viewBox="0 0 32 32" fill="#6f7072" >
<title>joystick</title>
<path  d="M30.4 16c0 7.952-6.448 14.4-14.4 14.4s-14.4-6.448-14.4-14.4 6.448-14.4 14.4-14.4 14.4 6.448 14.4 14.4zM28.285 19.696l-1.488-7.002c0-2.557-2.074-4.63-4.63-4.63-1.469 0-2.781 0.682-3.626 1.75h-5.050c-0.845-1.062-2.157-1.75-3.626-1.75-2.557 0-4.63 2.074-4.63 4.63v0 0l-1.491 7.002c-0.682 3.216 3.51 5.085 5.443 2.422l3.904-5.379h5.85l3.904 5.379c1.93 2.662 6.122 0.794 5.44-2.422v0zM11.878 11.955h-1.277v-1.277h-1.482v1.277h-1.277v1.488h1.277v1.277h1.482v-1.277h1.277v-1.488zM21.136 12.698c0 0.47-0.381 0.858-0.858 0.858-0.47 0-0.858-0.381-0.858-0.858 0-0.47 0.381-0.858 0.858-0.858 0.477 0.003 0.858 0.387 0.858 0.858zM24.906 12.698c0 0.47-0.381 0.858-0.858 0.858-0.47 0-0.858-0.381-0.858-0.858 0-0.47 0.381-0.858 0.858-0.858 0.474 0.003 0.858 0.387 0.858 0.858zM23.024 14.582c0 0.47-0.381 0.858-0.858 0.858-0.47 0-0.858-0.381-0.858-0.858 0-0.47 0.381-0.858 0.858-0.858 0.47 0 0.858 0.387 0.858 0.858zM23.024 10.816c0 0.47-0.381 0.858-0.858 0.858-0.47 0-0.858-0.381-0.858-0.858 0-0.47 0.381-0.858 0.858-0.858 0.47 0 0.858 0.381 0.858 0.858zM15.69 14.131h-0.941c-0.253 0-0.458 0.205-0.458 0.458v0c0 0.253 0.205 0.458 0.458 0.458h0.941v-0.915zM17.277 14.131h-0.941v0.918h0.941c0.253 0 0.458-0.205 0.458-0.458v0c0-0.256-0.205-0.461-0.458-0.461v0z"></path>
</svg>
