<!-- Generated by IcoMoon.io -->
<svg version="1.1" xmlns="http://www.w3.org/2000/svg" width="32" height="32" viewBox="0 0 32 32" fill="#6f7072">
<title>fishgame</title>
<path d="M26.822 14.88c-0.522-5.114-4.589-9.181-9.702-9.702v-3.578h-2.24v3.578c-5.114 0.522-9.181 4.589-9.702 9.702h-3.578v2.24h3.578c0.522 5.114 4.589 9.181 9.702 9.702v3.578h2.24v-3.578c5.114-0.522 9.181-4.589 9.702-9.702h3.578v-2.24h-3.578zM14.88 6.79v2.749c-2.726 0.464-4.877 2.614-5.341 5.341h-2.749c0.509-4.224 3.866-7.581 8.090-8.090zM14.88 25.21c-4.224-0.509-7.581-3.866-8.090-8.090h2.749c0.464 2.726 2.614 4.877 5.341 5.341v2.749zM16 19.36c-1.853 0-3.36-1.507-3.36-3.36s1.507-3.36 3.36-3.36 3.36 1.507 3.36 3.36-1.507 3.36-3.36 3.36zM17.12 25.21v-2.749c2.726-0.464 4.877-2.614 5.341-5.341h2.749c-0.509 4.224-3.866 7.581-8.090 8.090zM22.461 14.88c-0.464-2.726-2.614-4.877-5.341-5.341v-2.749c4.224 0.509 7.581 3.866 8.090 8.090h-2.749zM17.92 16c0 1.059-0.861 1.92-1.92 1.92s-1.92-0.861-1.92-1.92 0.861-1.92 1.92-1.92 1.92 0.861 1.92 1.92z"></path>
</svg>
