<!-- Generated by IcoMoon.io -->
<svg version="1.1" xmlns="http://www.w3.org/2000/svg" width="32" height="32" viewBox="0 0 32 32" fill="#fff">
<title>live-casino</title>
<path d="M28.595 18.288c-0.586-1.107-1.392-2.173-2.106-3.203-1.219-1.76-1.92-2.989-2.326-5.424 0.010-0.467-0.054-0.944-0.15-1.405-0.787-3.882-4.333-6.989-8.291-6.627-4.256 0.387-7.29 3.843-7.357 7.99-0.029 1.776-0.835 3.206-1.827 4.64-0.595 0.861-1.795 1.728-2.291 2.653-0.762 1.434-1.312 2.707-1.312 4.483 0.010 1.747 1.13 4.218 2.506 4.701 0-0.701-0.128-2.262-0.058-2.883 0.096-0.88 0.182-1.779 0.435-2.624 0.454-1.52 1.2-1.965 2.723-1.594 0.928 0.227 1.814 0.65 2.704 1.024 0.291 0.122 0.534 0.195 0.749 0.211-1.466 1.546-3.85 4.621-4.202 6.262-0.243 1.13-0.17 2.154 0.336 3.2 0.246 0.512 0.55 0.71 1.139 0.707 4.429-0.026 8.861-0.013 13.293-0.013 1.171 0 1.453-0.205 1.792-1.328 0.090-0.298 0.16-0.634 0.182-0.947 0.115-1.606-0.499-2.982-1.462-4.15-0.397-0.48-2.49-3.082-3.168-3.808 0.275-0.032 0.608-0.154 1.034-0.346 0.893-0.406 1.853-0.736 2.813-0.896 1.11-0.182 1.712 0.182 2.038 1.27 0.333 1.088 0.438 2.246 0.592 3.379 0.067 0.496-0.016 1.939-0.016 2.538 1.235-0.438 1.885-2.173 2.269-3.184 0.477-1.606 0.669-3.296-0.038-4.627zM20.883 11.613c-0.019 0.259-0.035 0.525-0.070 0.781-0.195 1.382-0.896 2.448-2.054 3.206-1.107 0.723-1.158 0.8-0.784 2.090 0.138 0.477 0.333 0.941 0.57 1.376 0.304 0.56 0.55 0.88 0.845 1.021 0.534 0.714 2.906 3.894 3.421 4.589v0c-2.752-2.752-6.675-0.285-6.675 2.403 0-2.656-3.939-5.149-6.71-2.381 0.378-0.659 2.086-3.162 3.008-4.547 0.195-0.102 0.362-0.301 0.525-0.618 0.435-0.851 0.726-1.779 1.030-2.694 0.157-0.464-0.010-0.784-0.515-1.040-1.261-0.637-2.016-1.702-2.339-3.091-0.102-0.448 0.122-1.357 0.474-1.59 1.709-1.13 3.078-1.667 4.512-2.96 0.611-0.554 1.098-1.254 1.347-1.917 0.269 1.213 1.331 1.706 2.218 2.221 1.29 0.749 1.299 1.949 1.2 3.152z"></path>
</svg>
