<!-- Generated by IcoMoon.io -->
<svg version="1.1" xmlns="http://www.w3.org/2000/svg" width="32" height="32" viewBox="0 0 32 32" fill="#fff">
<title>lotto</title>
<path d="M16 1.126c-8.285 0-15.002 6.717-15.002 15.002s6.717 15.002 15.002 15.002 15.002-6.717 15.002-15.002c0-8.285-6.717-15.002-15.002-15.002zM16.272 27.715c-0.093 0-0.186 0.003-0.278 0.003-5.741 0-10.47-4.582-10.618-10.355-0.15-5.869 4.483-10.749 10.352-10.899 0.093 0 0.186-0.003 0.278-0.003 5.741 0 10.47 4.582 10.618 10.355 0.003 0.090 0.003 0.179 0.003 0.272 0.077 5.792-4.56 10.554-10.355 10.627zM22.518 10.39c-1.754-1.709-4.067-2.65-6.512-2.65-0.083 0-0.163 0-0.246 0.003-5.152 0.134-9.238 4.432-9.104 9.584 0.061 2.454 1.066 4.749 2.822 6.461 1.757 1.709 4.070 2.65 6.515 2.65 0.083 0 0.163-0.003 0.246-0.003h0.016c2.461-0.032 4.762-1.021 6.48-2.784 1.715-1.76 2.643-4.086 2.611-6.547v-0.016c0-0.077 0-0.154-0.003-0.227-0.061-2.464-1.066-4.758-2.826-6.47zM16.912 23.584h-3.61l3.242-8.39h-4.627v-2.963l8.038-0.003 0.784 1.194-3.827 10.163z"></path>
</svg>
