<!-- Generated by IcoMoon.io -->
<svg version="1.1" xmlns="http://www.w3.org/2000/svg" width="32" height="32" viewBox="0 0 32 32" fill="#6f7072">
<title>table</title>
<path d="M15.965 25.837c6.461 0 8.314-1.389 8.314-1.389l1.299-6.768c-2.662 0.726-5.997 1.328-9.613 1.328-3.584 0-6.893-0.595-9.546-1.312l1.184 6.739c0 0 1.901 1.402 8.362 1.402v0zM28.63 6.624c-0.33-0.298-0.758-0.461-1.203-0.461v0h-22.858c-0.445 0-0.874 0.163-1.203 0.461-1.126 1.024-1.766 2.461-1.766 3.578 0 3.546 6.448 6.416 14.4 6.416s14.4-2.87 14.4-6.416c0-1.117-0.64-2.554-1.77-3.578v0zM16.093 12.538c-6.426 0-11.638-1.53-11.638-3.414 0-0.422 0.266-0.829 0.742-1.206h6.966l-0.944 1.731h9.558l-0.944-1.731h7.155c0.483 0.374 0.742 0.781 0.742 1.206 0 1.885-5.21 3.414-11.638 3.414v0z"></path>
</svg>
