<!-- Generated by IcoMoon.io -->
<svg version="1.1" xmlns="http://www.w3.org/2000/svg" width="32" height="32" viewBox="0 0 32 32" fill="#fff">
<title>slots</title>
<path d="M20.592 8.886c0.23 0.246 0.282 0.509 0.282 0.682 0 0.333-0.109 0.87-1.421 3.411-0.768 1.494-1.475 3.040-2.096 4.595-0.621 1.549-1.043 2.717-1.254 3.475-0.317 1.126-0.493 1.482-0.672 1.686-0.246 0.278-0.65 0.454-1.312 0.57-0.499 0.086-1.034 0.131-1.59 0.131-0.838 0-1.216-0.547-1.216-1.088 0-0.298 0.090-0.826 0.762-2.477 0.502-1.238 1.661-2.97 3.539-5.299 0.576-0.726 1.053-1.379 1.427-1.949-0.282-0.022-0.682-0.058-1.197-0.109-0.858-0.083-1.37-0.128-1.533-0.128-0.464 0-0.605 0.106-0.63 0.128-0.074 0.067-0.218 0.25-0.349 0.714-0.064 0.221-0.221 0.406-0.429 0.502-0.262 0.122-0.525 0.179-0.781 0.179-0.573 0-0.989-0.422-0.989-1.005 0-0.144 0.026-0.323 0.16-0.774l0.525-1.715c0.109-0.33 0.224-0.592 0.346-0.81 0.176-0.314 0.4-0.544 0.666-0.685 0.214-0.112 0.531-0.195 1.018-0.266 0.419-0.061 0.835-0.090 1.245-0.090 0.464 0 1.043 0.058 1.77 0.179 0.63 0.106 1.117 0.16 1.446 0.16 0.573 0 0.781-0.074 0.829-0.096 0.394-0.182 0.557-0.243 0.752-0.243 0.214 0 0.554 0.163 0.704 0.32zM9.718 8.566c-0.195 0-0.358 0.061-0.752 0.243-0.048 0.022-0.256 0.096-0.829 0.096-0.33 0-0.816-0.054-1.446-0.16-0.726-0.122-1.306-0.179-1.77-0.179-0.41 0-0.826 0.029-1.245 0.090-0.49 0.070-0.803 0.154-1.018 0.266-0.266 0.138-0.49 0.368-0.666 0.685-0.122 0.218-0.237 0.48-0.346 0.81l-0.528 1.712c-0.134 0.451-0.16 0.634-0.16 0.778 0 0.582 0.416 1.005 0.989 1.005 0.256 0 0.518-0.061 0.781-0.179 0.211-0.096 0.368-0.278 0.429-0.502 0.131-0.467 0.275-0.646 0.349-0.714 0.022-0.022 0.166-0.128 0.63-0.128 0.163 0 0.675 0.045 1.533 0.128 0.515 0.051 0.915 0.086 1.197 0.109-0.374 0.57-0.851 1.222-1.427 1.949-1.878 2.33-3.037 4.064-3.539 5.299-0.669 1.651-0.762 2.179-0.762 2.477 0 0.541 0.374 1.088 1.216 1.088 0.557 0 1.091-0.045 1.59-0.131 0.659-0.115 1.066-0.291 1.312-0.57 0.182-0.205 0.358-0.56 0.672-1.686 0.211-0.755 0.634-1.926 1.254-3.475 0.621-1.552 1.328-3.101 2.096-4.595 1.309-2.538 1.421-3.075 1.421-3.411 0-0.176-0.048-0.435-0.282-0.682-0.144-0.157-0.486-0.32-0.701-0.32zM30.758 8.886c-0.147-0.16-0.49-0.32-0.704-0.32-0.195 0-0.358 0.061-0.752 0.243-0.048 0.022-0.256 0.096-0.829 0.096-0.33 0-0.816-0.054-1.446-0.16-0.726-0.122-1.306-0.179-1.77-0.179-0.41 0-0.826 0.029-1.245 0.090-0.49 0.070-0.803 0.154-1.018 0.266-0.266 0.138-0.49 0.368-0.666 0.685-0.122 0.218-0.237 0.48-0.346 0.81l-0.525 1.715c-0.134 0.451-0.16 0.63-0.16 0.774 0 0.582 0.416 1.005 0.989 1.005 0.256 0 0.518-0.061 0.781-0.179 0.211-0.096 0.368-0.278 0.429-0.502 0.131-0.467 0.275-0.646 0.349-0.714 0.022-0.022 0.166-0.128 0.63-0.128 0.163 0 0.675 0.045 1.533 0.128 0.515 0.051 0.915 0.086 1.197 0.109-0.374 0.57-0.851 1.222-1.427 1.949-1.878 2.33-3.037 4.064-3.539 5.299-0.669 1.651-0.762 2.179-0.762 2.477 0 0.541 0.374 1.088 1.216 1.088 0.557 0 1.091-0.045 1.59-0.131 0.659-0.115 1.066-0.291 1.312-0.57 0.182-0.205 0.358-0.56 0.672-1.686 0.211-0.755 0.634-1.926 1.254-3.475 0.621-1.552 1.328-3.101 2.096-4.595 1.312-2.538 1.421-3.075 1.421-3.408 0-0.176-0.048-0.438-0.282-0.685z"></path>
</svg>
