<!-- Generated by IcoMoon.io -->
<svg  version="1.1" xmlns="http://www.w3.org/2000/svg" width="32" height="32" viewBox="0 0 32 32" fill="#fff"  >
<title>football</title>
<path  d="M19.584 15.638c-0.32-1.414-0.637-2.832-0.925-4.25-0.080-0.384-0.266-0.573-0.627-0.688-1.312-0.41-2.618-0.845-3.923-1.264-0.406-0.131-0.813-0.256-1.165-0.368-0.25-0.019-0.378 0.090-0.502 0.205-1.181 1.085-2.358 2.176-3.546 3.254-0.214 0.195-0.294 0.384-0.234 0.678 0.339 1.677 0.669 3.354 0.976 5.034 0.061 0.339 0.227 0.49 0.541 0.586 1.533 0.47 3.062 0.954 4.589 1.446 0.278 0.090 0.486 0.064 0.704-0.147 1.293-1.258 2.589-2.509 3.894-3.75 0.224-0.214 0.285-0.435 0.218-0.736v0zM25.312 18.65c-0.048-0.31-0.176-0.486-0.502-0.557-1.344-0.285-2.685-0.589-4.026-0.883-0.221-0.051-0.403-0.022-0.586 0.147-1.35 1.264-2.707 2.518-4.061 3.773-0.15 0.138-0.282 0.285-0.259 0.39 0.182 1.395 0.346 2.669 0.509 3.939 0.029 0.24 0.198 0.333 0.4 0.378 1.562 0.362 3.123 0.717 4.685 1.082 0.182 0.045 0.33-0.010 0.467-0.122 1.28-1.037 2.563-2.077 3.846-3.114 0.182-0.147 0.25-0.307 0.211-0.557-0.237-1.488-0.467-2.982-0.685-4.477v0zM16.864 2.051c-1.581 0.733-3.104 1.578-4.637 2.4-0.256 0.138-0.304 0.291-0.202 0.557 0.33 0.854 0.646 1.715 0.96 2.576 0.080 0.221 0.224 0.342 0.448 0.416 1.722 0.528 3.443 1.066 5.165 1.603 0.179 0.054 0.355 0.074 0.534-0.006 1.299-0.579 2.595-1.152 3.894-1.728 0.195-0.086 0.272-0.218 0.234-0.438-0.179-1.133-0.358-2.259-0.611-3.376-0.102-0.461-0.342-0.806-0.739-1.053-0.416-0.256-0.848-0.47-1.293-0.646-0.589-0.198-1.194-0.362-1.814-0.483-0.243-0.038-0.49-0.067-0.739-0.080-0.435-0.061-0.819 0.080-1.2 0.259v0zM3.187 21.171c0.886 0.371 1.779 0.739 2.659 1.123 0.291 0.125 0.464 0.083 0.64-0.198 0.63-1.011 1.286-2.003 1.933-3.008 0.083-0.128 0.17-0.256 0.15-0.422-0.013-0.077-0.022-0.15-0.038-0.227-0.336-1.722-0.678-3.446-1.002-5.171-0.054-0.291-0.234-0.403-0.474-0.49-0.874-0.32-1.75-0.64-2.618-0.982-0.307-0.122-0.506-0.077-0.688 0.214-0.627 0.995-1.267 1.981-1.907 2.97-0.102 0.16-0.186 0.33-0.237 0.506-0.003 0.173-0.006 0.342-0.006 0.512 0 1.424 0.205 2.797 0.592 4.096 0.032 0.070 0.064 0.141 0.096 0.211 0.192 0.4 0.483 0.694 0.899 0.867v0zM30.182 13.501c-0.134-0.221-0.39-0.138-1.066-0.154-0.214 0-0.429 0.010-0.64-0.003-0.298-0.019-0.477 0.096-0.592 0.384-0.506 1.261-1.027 2.515-1.552 3.77-0.125 0.294-0.134 0.576-0.080 0.89 0.205 1.139 0.378 2.288 0.579 3.43 0.234 1.286-0.080 1.136 1.357 1.344 0.125 0.019 0.227 0.013 0.31-0.019 1.21-2.102 1.901-4.541 1.901-7.142 0-0.851-0.074-1.686-0.218-2.499v0zM21.184 28.506c-0.006-0.355-0.134-0.512-0.483-0.589-1.398-0.31-2.797-0.643-4.189-0.979-0.307-0.074-0.598-0.054-0.902 0.016-1.101 0.246-2.211 0.464-3.306 0.73-1.299 0.314-1.136-0.010-1.165 1.462-0.003 0.189 0.026 0.336 0.099 0.451 1.491 0.522 3.094 0.803 4.762 0.803 1.808 0 3.539-0.336 5.136-0.944 0.058-0.195 0.054-0.486 0.048-0.95v0zM23.792 4.035c-0.131 0.090-0.038 0.25-0.016 0.381 0.138 0.781 0.301 1.558 0.406 2.342 0.115 0.835 0.4 1.562 0.97 2.211 0.742 0.848 1.424 1.754 2.096 2.659 0.4 0.541 0.656 0.739 1.453 0.755 0.275 0 0.445 0 0.611 0 0.576-0.006 0.611-0.042 0.454-0.608-0.003-0.010-0.006-0.019-0.010-0.026-0.899-2.918-2.704-5.44-5.082-7.242-0.17-0.115-0.346-0.23-0.525-0.339-0.109-0.070-0.227-0.224-0.358-0.134v0zM9.808 27.648c-1.338-1.133-2.435-2.477-3.52-3.84-0.096-0.122-0.195-0.234-0.346-0.288-0.909-0.32-1.83-0.611-2.819-1.069 1.462 2.909 3.878 5.254 6.842 6.624 0.109-0.208 0-1.293-0.157-1.427v0zM15.731 1.6c-3.494 0.061-6.688 1.37-9.149 3.498-0.006 0.019-0.013 0.035-0.019 0.054 3.302-0.576 6.317-1.853 9.168-3.552zM1.878 13.155c1.651-1.901 2.333-4.211 3.133-6.467-1.546 1.824-2.65 4.032-3.133 6.467z"></path>
</svg>
